PathFileType	4	(X/Y/Z)	/Users/niels/Desktop/University/Third Semester/Perception and Action/Exam/Gymnastics Motion Tracking/Code for Gym Tracking/Analyzed Data/Webcam_Backflip/id1_9_trajectory_Sports2D/id1_9_trajectory_Sports2D_px_person00.trc
DataRate	CameraRate	NumFrames	NumMarkers	Units	OrigDataRate	OrigDataStartFrame	OrigNumFrames
29.714285714285715	29.714285714285715	11	22	m	29.714285714285715	91	105
Frame#	Time	Hip			RHip			RKnee			RAnkle			RBigToe			RSmallToe			RHeel			LHip			LKnee			LAnkle			LBigToe			LSmallToe			LHeel			Neck			Head			Nose			RShoulder			RElbow			RWrist			LShoulder			LElbow			LWrist		
		X1	Y1	Z1	X2	Y2	Z2	X3	Y3	Z3	X4	Y4	Z4	X5	Y5	Z5	X6	Y6	Z6	X7	Y7	Z7	X8	Y8	Z8	X9	Y9	Z9	X10	Y10	Z10	X11	Y11	Z11	X12	Y12	Z12	X13	Y13	Z13	X14	Y14	Z14	X15	Y15	Z15	X16	Y16	Z16	X17	Y17	Z17	X18	Y18	Z18	X19	Y19	Z19	X20	Y20	Z20	X21	Y21	Z21	X22	Y22	Z22
91	3.0625	1.3434044455609246	-0.6022974549816495	0.0	1.309862938758087	-0.6067697402126849	0.0	1.3243370655943807	-0.751554374038911	0.0	1.3357944393489678	-0.897835002053116	0.0	1.3411172704620067	-0.9254830000750132	0.0	1.3217618272997156	-0.9167653653169681	0.0	1.3408277756120852	-0.9126877931893864	0.0	1.377952624318264	-0.5985784798190664	0.0	1.3883010905460524	-0.6974502731946947	0.0	1.3693181904473495	-0.7968274617817395	0.0	1.3699623338931501	-0.8450706531547227	0.0	1.3848917234703004	-0.839062047168769	0.0	1.3628601723914449	-0.7998663285106307	0.0	1.329955931951867	-0.4294898057806988	0.0	1.3275527449197242	-0.3411190496661901	0.0	1.325720793727492	-0.3968470424153813	0.0	1.270810971198706	-0.4592790878758276	0.0	1.2416977180073434	-0.5323574814778542	0.0	1.2126749204215201	-0.6078826647020358	0.0	1.3918841571591554	-0.4508581075223449	0.0	1.4194101341474412	-0.5370003971866129	0.0	1.437999920252738	-0.6189602214742203	0.0
92	3.096153846153846	1.3433973274491127	-0.6161124048562242	0.0	1.3097577284333521	-0.6216445257348815	0.0	1.325399903147573	-0.7698809787342205	0.0	1.335560685039299	-0.9121546084467426	0.0	1.3423690932658114	-0.9429646262926998	0.0	1.3223867809159762	-0.9300186830541843	0.0	1.3399418028933034	-0.9243390471003995	0.0	1.3782362828462313	-0.6114468404392555	0.0	1.3944672789829275	-0.696507076027462	0.0	1.3727523133804584	-0.8151648243036601	0.0	1.3757443640147589	-0.8612868007345561	0.0	1.391010485151251	-0.8557599252710097	0.0	1.3649707233337742	-0.8217281698961406	0.0	1.3287731198440567	-0.4441530775613455	0.0	1.3289676194369417	-0.35511283949061695	0.0	1.325370968714461	-0.4106053458344669	0.0	1.2689432478287144	-0.4742996672408748	0.0	1.234265898894365	-0.5477621959713477	0.0	1.1995739864891446	-0.6213142768158647	0.0	1.390425490284277	-0.4652854778302261	0.0	1.4166370937402784	-0.5523348905043038	0.0	1.4379357574784262	-0.6345644443740449	0.0
93	3.129807692307692	1.3434730793986744	-0.6300563594659485	0.0	1.3098402297159994	-0.6365209648708945	0.0	1.3258545477301775	-0.7873611396958814	0.0	1.335074536762607	-0.9252155492045064	0.0	1.3419948127488373	-0.9606537907033044	0.0	1.3220575847732527	-0.9438216882526274	0.0	1.3386080050605267	-0.9352656757592946	0.0	1.378301448388868	-0.6250234817509364	0.0	1.398814334150934	-0.6983863965428948	0.0	1.3768734554095445	-0.8358151809783235	0.0	1.381379680352474	-0.8792410083702162	0.0	1.3971506678040546	-0.8741038927168507	0.0	1.3685714056291252	-0.8461185555031778	0.0	1.3277391157572385	-0.4586100969861383	0.0	1.330362105503476	-0.36914122314419745	0.0	1.325031622918877	-0.4242854155175821	0.0	1.2674557981962875	-0.48923228022665466	0.0	1.2282347296524154	-0.5634705494843867	0.0	1.1874531212998443	-0.6346218540042083	0.0	1.3893143062578408	-0.4795336747615818	0.0	1.413953434820446	-0.5676716633030483	0.0	1.4370507778724337	-0.6501501497090887	0.0
94	3.1634615384615383	1.3437143698596383	-0.6425272586592906	0.0	1.3100499667573104	-0.6496327453894921	0.0	1.3257988465575874	-0.8020911775136436	0.0	1.3345729602454715	-0.9357161982244292	0.0	1.3412840574348692	-0.9746150209114567	0.0	1.3216759172052235	-0.9563642737663519	0.0	1.3371789019871927	-0.9443887539250431	0.0	1.3784006908250486	-0.6375400362540584	0.0	1.4008363774087371	-0.7031327459612036	0.0	1.3809384385687424	-0.8565861973683286	0.0	1.3860765728315498	-0.8971564232067637	0.0	1.4025180443270695	-0.892354299574476	0.0	1.372991191787109	-0.870351759928158	0.0	1.3270463483079769	-0.4708287877218768	0.0	1.331669783733634	-0.3809872937380369	0.0	1.324830043505641	-0.43587446228394083	0.0	1.2664362175461086	-0.5021586718115988	0.0	1.2244487835132294	-0.5776659469203596	0.0	1.178241814960034	-0.6463716282560258	0.0	1.3889821875733412	-0.49193502731332966	0.0	1.4117749896530691	-0.5814516058030715	0.0	1.4355145506962466	-0.6643295211860227	0.0
95	3.1971153846153846	1.3441863512959038	-0.6522549785574075	0.0	1.310213443912313	-0.6595673286299168	0.0	1.3253627728954964	-0.8124241148695266	0.0	1.3343102565303542	-0.9422631147364633	0.0	1.3416117862057493	-0.980977378195551	0.0	1.322081072063927	-0.9647213838463364	0.0	1.336245639784326	-0.9503292886016469	0.0	1.3787764396754159	-0.6474418929335942	0.0	1.4005704153969596	-0.7100736548916952	0.0	1.3841610707954934	-0.8757334774135077	0.0	1.3891323902158756	-0.9138416089586994	0.0	1.4065933831962476	-0.909386058867885	0.0	1.3772641394867198	-0.892477247526158	0.0	1.3269347573344168	-0.479046084918664	0.0	1.3329924948778469	-0.38866164315254603	0.0	1.3250452736611582	-0.4435912190928421	0.0	1.2659635815678234	-0.5114445378731491	0.0	1.2234724178812064	-0.5886815352683573	0.0	1.173626995761809	-0.6554366268834225	0.0	1.389721762133138	-0.5010251201793854	0.0	1.4104964656086716	-0.5921705857030727	0.0	1.433723804813722	-0.6757373653766532	0.0
96	3.230769230769231	1.344912583878829	-0.6583267842046113	0.0	1.3101898186468466	-0.66542850946467	0.0	1.324749036080803	-0.8173891844023404	0.0	1.3345110447052675	-0.9437618958560754	0.0	1.3435620531121475	-0.979042178156542	0.0	1.323604762595522	-0.9666285611614457	0.0	1.3363109436697749	-0.9520163400600048	0.0	1.3795404559188793	-0.6536459191289095	0.0	1.3985489119906924	-0.7181903802500107	0.0	1.3859869364705748	-0.8921469595018798	0.0	1.3902768487829107	-0.928706548849877	0.0	1.409179483692759	-0.9245821351950201	0.0	1.3804346290992848	-0.9112934424323194	0.0	1.327662354183088	-0.4821301564607236	0.0	1.3346241779777013	-0.3908838243625421	0.0	1.3260877268641105	-0.4462730975178555	0.0	1.2661980893223344	-0.515851392041185	0.0	1.2254543260916098	-0.595223309922007	0.0	1.1746460347425314	-0.6611528391392898	0.0	1.3915896577252227	-0.5057147079944834	0.0	1.4103867795427871	-0.5986208579696842	0.0	1.432176992083388	-0.6831569662324304	0.0
97	3.2644230769230766	1.3458569094340156	-0.660168423614037	0.0	1.31003325514799	-0.6668420265852258	0.0	1.3242210607469111	-0.8169588507490363	0.0	1.3352937120539914	-0.9398524550693789	0.0	1.346762748510275	-0.9712709124866927	0.0	1.3259627276453991	-0.9621386030702157	0.0	1.3375248003361397	-0.9491220204463031	0.0	1.3806623470049548	-0.6555947461903829	0.0	1.3955739422570093	-0.7264182318481118	0.0	1.3862831109579976	-0.9052660568171944	0.0	1.389815925954419	-0.9414021428458753	0.0	1.4103454867728595	-0.9374861235591698	0.0	1.3818877070633229	-0.9261571359096039	0.0	1.3294409062316237	-0.4796714156657416	0.0	1.3369870575807137	-0.3872940028070883	0.0	1.3283882346743703	-0.4435088721603132	0.0	1.26733919576676	-0.5146692201859997	0.0	1.2301097773742946	-0.5965774375969044	0.0	1.181485360182158	-0.6633244949636806	0.0	1.3944512016994974	-0.5054565834782649	0.0	1.4115289943278142	-0.600076194831565	0.0	1.4312569660382115	-0.6857064827287234	0.0
98	3.298076923076923	1.3469317661524653	-0.6576581713358023	0.0	1.309981252207058	-0.6639063070815839	0.0	1.3240051966948536	-0.8119205975492774	0.0	1.3365747683985183	-0.9312751952425002	0.0	1.3502554572730032	-0.9608357618868635	0.0	1.3284600893749425	-0.953202644609674	0.0	1.3396030479621543	-0.9421639760724663	0.0	1.382002084365262	-0.6532560584767108	0.0	1.3923978272913407	-0.7337586072437104	0.0	1.385323164404632	-0.9148691708714874	0.0	1.388441332802521	-0.9515479072313794	0.0	1.410364501213536	-0.9476258358430677	0.0	1.3815808002864678	-0.9368203550196446	0.0	1.3323515069131506	-0.47187491781961655	0.0	1.3404795689413067	-0.37829692197714576	0.0	1.3322425945604677	-0.4355253870477694	0.0	1.2694086678833782	-0.5078934397512574	0.0	1.2367882052024162	-0.5927439622119689	0.0	1.193477316760399	-0.6620870610259433	0.0	1.3980982685829457	-0.5003002184506884	0.0	1.4138495330267946	-0.5964190969311791	0.0	1.4310696860509347	-0.6830908677104155	0.0
99	3.331730769230769	1.348008956790165	-0.6512446309190304	0.0	1.3102592493748082	-0.6571676766183633	0.0	1.3241452919255776	-0.8035205824232345	0.0	1.3380338850740239	-0.9196446459681984	0.0	1.352841458281185	-0.9499947347092315	0.0	1.3303227900749373	-0.9421214350692493	0.0	1.3419418816277635	-0.932215295529973	0.0	1.38336483453068	-0.6471650868003538	0.0	1.3895011653796696	-0.7394116503169182	0.0	1.3836174474259413	-0.9209496966693054	0.0	1.3868443992738906	-0.9588820648669996	0.0	1.4095950203614522	-0.9547126520941578	0.0	1.3800137321798762	-0.9433506946689725	0.0	1.3362929382541517	-0.45946915606106853	0.0	1.3453036426779128	-0.36478765880888786	0.0	1.3377082031872323	-0.42301481446193245	0.0	1.2721328022845981	-0.4962705805089204	0.0	1.244582974358344	-0.5844557077418687	0.0	1.2092803859677117	-0.6577842381379884	0.0	1.4023309085595934	-0.4907999133687746	0.0	1.4171954452855076	-0.5882204614773997	0.0	1.43141305367598	-0.6757402013870769	0.0
100	3.3653846153846154	1.3489831687024347	-0.6419040117560217	0.0	1.310920840935793	-0.6475788742186365	0.0	1.324445240406565	-0.7930431119050477	0.0	1.3392293492730674	-0.9066194171065176	0.0	1.3534945701580445	-0.9397142930544023	0.0	1.3309335333061991	-0.9305409527280684	0.0	1.3439134346196064	-0.9203954010383439	0.0	1.3846186425288736	-0.6384040740779057	0.0	1.3870524523195418	-0.7430540992765439	0.0	1.3817176904077195	-0.9238262510050206	0.0	1.3854641507480814	-0.9635529913585071	0.0	1.4083789333491528	-0.9589334543645062	0.0	1.37792303335626	-0.9461853955415535	0.0	1.3410153428689033	-0.44360657400615056	0.0	1.3513876151699677	-0.34791941182924313	0.0	1.3446091046488522	-0.40698830416282616	0.0	1.2750902739030445	-0.48106219738238604	0.0	1.2525263707407495	-0.5729769290442622	0.0	1.2272459298084462	-0.6509103281171332	0.0	1.4069852980322683	-0.4778640389045159	0.0	1.4213734493410641	-0.5766561288413504	0.0	1.4319501913454746	-0.6647209120164966	0.0
101	3.3990384615384612	1.3498727849433507	-0.6308797071829322	0.0	1.3118866280516663	-0.6363147964918487	0.0	1.3245766079950405	-0.7813419782178159	0.0	1.3397991443545867	-0.8932489288161255	0.0	1.351719029767767	-0.9299748308378292	0.0	1.3298767781289111	-0.919265237169515	0.0	1.3451304105324438	-0.9075246411959167	0.0	1.3858044898504998	-0.6283288873641345	0.0	1.384996283339373	-0.7449732472979587	0.0	1.3800377363222782	-0.9242488748047775	0.0	1.3845097394724946	-0.9661083421170951	0.0	1.407020360702212	-0.9609343459589569	0.0	1.3759399984763854	-0.9461829847938569	0.0	1.3461998306743985	-0.4256122333889916	0.0	1.3584324887108101	-0.3288862027369798	0.0	1.3526137232703237	-0.3886163673551056	0.0	1.2779443698213473	-0.46365542750551314	0.0	1.2598552249519877	-0.5596886192850584	0.0	1.2458755133391675	-0.6420025540146203	0.0	1.4119409992207714	-0.46259595335266884	0.0	1.4261265039449067	-0.5631898909045904	0.0	1.4324788336348124	-0.6514621956946536	0.0
